<svg xmlns="http://www.w3.org/2000/svg" viewBox="0 0 640 360" fill="none" role="img" aria-label="DataLens analytics copilot diagram">
  <defs>
    <linearGradient id="dl-bg" x1="0" y1="0" x2="640" y2="360" gradientUnits="userSpaceOnUse">
      <stop stop-color="#0c1424"/><stop offset="1" stop-color="#111827"/>
    </linearGradient>
    <linearGradient id="dl-accent" x1="0" y1="0" x2="1" y2="1">
      <stop stop-color="#38bdf8"/><stop offset="1" stop-color="#818cf8"/>
    </linearGradient>
  </defs>
  <rect width="640" height="360" fill="url(#dl-bg)"/>
  <rect x="48" y="48" width="200" height="120" rx="8" fill="#151929" stroke="#334155"/>
  <text x="68" y="76" fill="#64748b" font-family="system-ui,sans-serif" font-size="10">Natural language query</text>
  <rect x="68" y="88" width="160" height="8" rx="2" fill="#1e293b"/>
  <rect x="68" y="104" width="120" height="8" rx="2" fill="#1e293b"/>
  <rect x="68" y="120" width="140" height="8" rx="2" fill="#334155"/>
  <path d="M248 108h44" stroke="url(#dl-accent)" stroke-width="2" stroke-dasharray="4 3"/>
  <rect x="292" y="56" width="140" height="104" rx="8" fill="#151929" stroke="url(#dl-accent)" stroke-width="1.5"/>
  <text x="362" y="84" text-anchor="middle" fill="#7dd3fc" font-family="system-ui,sans-serif" font-size="11" font-weight="600">Agent Swarm</text>
  <text x="362" y="102" text-anchor="middle" fill="#94a3b8" font-family="system-ui,sans-serif" font-size="9">EDA · KPI · Insights</text>
  <rect x="312" y="114" width="48" height="22" rx="4" fill="#1e293b" stroke="#334155"/><text x="336" y="129" text-anchor="middle" fill="#64748b" font-family="system-ui,sans-serif" font-size="8">LangGraph</text>
  <rect x="368" y="114" width="48" height="22" rx="4" fill="#1e293b" stroke="#334155"/><text x="392" y="129" text-anchor="middle" fill="#64748b" font-family="system-ui,sans-serif" font-size="8">React</text>
  <path d="M432 108h44" stroke="url(#dl-accent)" stroke-width="2"/>
  <rect x="476" y="48" width="116" height="120" rx="8" fill="#151929" stroke="#334155"/>
  <rect x="492" y="72" width="84" height="48" rx="4" fill="#1e293b"/>
  <polyline points="500,108 520,88 540,96 560,72 568,80" stroke="#38bdf8" stroke-width="2" fill="none"/>
  <rect x="500" y="128" width="28" height="28" rx="3" fill="#1e293b"/><rect x="536" y="128" width="28" height="28" rx="3" fill="#1e293b"/><rect x="572" y="128" width="12" height="28" rx="3" fill="#38bdf8" opacity="0.6"/>
  <rect x="48" y="196" width="544" height="116" rx="10" fill="#0f172a" stroke="#1e293b"/>
  <text x="68" y="222" fill="#64748b" font-family="system-ui,sans-serif" font-size="10">Automated pipeline</text>
  <rect x="68" y="236" width="100" height="52" rx="6" fill="#151929" stroke="#334155"/><text x="118" y="258" text-anchor="middle" fill="#94a3b8" font-family="system-ui,sans-serif" font-size="9">Visualization</text><text x="118" y="274" text-anchor="middle" fill="#64748b" font-family="system-ui,sans-serif" font-size="8">Charts</text>
  <rect x="188" y="236" width="100" height="52" rx="6" fill="#151929" stroke="#334155"/><text x="238" y="258" text-anchor="middle" fill="#94a3b8" font-family="system-ui,sans-serif" font-size="9">KPI Gen</text><text x="238" y="274" text-anchor="middle" fill="#64748b" font-family="system-ui,sans-serif" font-size="8">Metrics</text>
  <rect x="308" y="236" width="100" height="52" rx="6" fill="#151929" stroke="#334155"/><text x="358" y="258" text-anchor="middle" fill="#94a3b8" font-family="system-ui,sans-serif" font-size="9">Business</text><text x="358" y="274" text-anchor="middle" fill="#64748b" font-family="system-ui,sans-serif" font-size="8">Insights</text>
  <rect x="428" y="236" width="144" height="52" rx="6" fill="#151929" stroke="url(#dl-accent)" stroke-width="1"/><text x="500" y="258" text-anchor="middle" fill="#7dd3fc" font-family="system-ui,sans-serif" font-size="9">FastAPI Backend</text><text x="500" y="274" text-anchor="middle" fill="#64748b" font-family="system-ui,sans-serif" font-size="8">Python · LangChain</text>
</svg>
