<svg xmlns="http://www.w3.org/2000/svg" viewBox="0 0 640 360" fill="none" role="img" aria-label="CodeGen clinical analytics diagram">
  <defs>
    <linearGradient id="cg-bg" x1="0" y1="0" x2="640" y2="360" gradientUnits="userSpaceOnUse">
      <stop stop-color="#120f1a"/><stop offset="1" stop-color="#1a1528"/>
    </linearGradient>
    <linearGradient id="cg-accent" x1="0" y1="0" x2="1" y2="0">
      <stop stop-color="#a78bfa"/><stop offset="1" stop-color="#c084fc"/>
    </linearGradient>
  </defs>
  <rect width="640" height="360" fill="url(#cg-bg)"/>
  <rect x="56" y="56" width="160" height="100" rx="8" fill="#1a1528" stroke="#334155"/>
  <text x="76" y="82" fill="#64748b" font-family="system-ui,sans-serif" font-size="10">Metadata definitions</text>
  <rect x="76" y="94" width="120" height="6" rx="1" fill="#334155"/>
  <rect x="76" y="108" width="100" height="6" rx="1" fill="#1e293b"/>
  <rect x="76" y="122" width="110" height="6" rx="1" fill="#1e293b"/>
  <rect x="76" y="136" width="90" height="6" rx="1" fill="#1e293b"/>
  <path d="M216 106h48" stroke="url(#cg-accent)" stroke-width="2" stroke-dasharray="5 3"/>
  <rect x="264" y="48" width="112" height="116" rx="8" fill="#151929" stroke="url(#cg-accent)" stroke-width="1.5"/>
  <text x="320" y="78" text-anchor="middle" fill="#c4b5fd" font-family="system-ui,sans-serif" font-size="11" font-weight="600">Agentic Engine</text>
  <text x="320" y="96" text-anchor="middle" fill="#94a3b8" font-family="system-ui,sans-serif" font-size="9">LangGraph · OpenAI</text>
  <text x="320" y="118" text-anchor="middle" fill="#64748b" font-family="system-ui,sans-serif" font-size="9">80% less manual coding</text>
  <rect x="288" y="130" width="64" height="22" rx="4" fill="#1e293b" stroke="#334155"/><text x="320" y="145" text-anchor="middle" fill="#64748b" font-family="system-ui,sans-serif" font-size="8">Azure</text>
  <path d="M376 106h48" stroke="url(#cg-accent)" stroke-width="2"/>
  <rect x="424" y="56" width="160" height="100" rx="8" fill="#151929" stroke="#334155"/>
  <text x="444" y="82" fill="#64748b" font-family="system-ui,sans-serif" font-size="10">Generated programs</text>
  <text x="504" y="108" text-anchor="middle" fill="#a78bfa" font-family="monospace" font-size="11">SAS</text>
  <text x="504" y="132" text-anchor="middle" fill="#c084fc" font-family="monospace" font-size="11">R</text>
  <rect x="56" y="196" width="528" height="108" rx="10" fill="#0f0d14" stroke="#1e293b"/>
  <text x="76" y="222" fill="#64748b" font-family="system-ui,sans-serif" font-size="10">Clinical analytics workflow</text>
  <rect x="76" y="238" width="140" height="44" rx="6" fill="#151929" stroke="#334155"/><text x="146" y="258" text-anchor="middle" fill="#94a3b8" font-family="system-ui,sans-serif" font-size="9">Study metadata</text><text x="146" y="272" text-anchor="middle" fill="#64748b" font-family="system-ui,sans-serif" font-size="8">CDISC / specs</text>
  <rect x="236" y="238" width="140" height="44" rx="6" fill="#151929" stroke="url(#cg-accent)" stroke-width="1"/><text x="306" y="258" text-anchor="middle" fill="#c4b5fd" font-family="system-ui,sans-serif" font-size="9">Code generation</text><text x="306" y="272" text-anchor="middle" fill="#64748b" font-family="system-ui,sans-serif" font-size="8">Python agents</text>
  <rect x="396" y="238" width="168" height="44" rx="6" fill="#151929" stroke="#334155"/><text x="480" y="258" text-anchor="middle" fill="#94a3b8" font-family="system-ui,sans-serif" font-size="9">Validated output</text><text x="480" y="272" text-anchor="middle" fill="#64748b" font-family="system-ui,sans-serif" font-size="8">SAS · R programs</text>
</svg>
