<svg xmlns="http://www.w3.org/2000/svg" viewBox="0 0 640 360" fill="none" role="img" aria-label="AskMe SQL intelligence diagram">
  <defs>
    <linearGradient id="am-bg" x1="0" y1="0" x2="640" y2="360" gradientUnits="userSpaceOnUse">
      <stop stop-color="#0a1218"/><stop offset="1" stop-color="#0f1a22"/>
    </linearGradient>
    <linearGradient id="am-accent" x1="0" y1="0" x2="1" y2="1">
      <stop stop-color="#2dd4bf"/><stop offset="1" stop-color="#22d3ee"/>
    </linearGradient>
  </defs>
  <rect width="640" height="360" fill="url(#am-bg)"/>
  <rect x="48" y="52" width="220" height="88" rx="8" fill="#111827" stroke="#334155"/>
  <text x="68" y="78" fill="#64748b" font-family="system-ui,sans-serif" font-size="10">Business question</text>
  <text x="68" y="104" fill="#e2e8f0" font-family="system-ui,sans-serif" font-size="12">"What were Q3 sales by region?"</text>
  <path d="M268 96h40" stroke="url(#am-accent)" stroke-width="2"/>
  <rect x="308" y="44" width="124" height="104" rx="8" fill="#111827" stroke="url(#am-accent)" stroke-width="1.5"/>
  <text x="370" y="72" text-anchor="middle" fill="#5eead4" font-family="system-ui,sans-serif" font-size="11" font-weight="600">NL Æ SQL</text>
  <text x="370" y="90" text-anchor="middle" fill="#94a3b8" font-family="system-ui,sans-serif" font-size="9">RAG Ę AI Agents</text>
  <text x="370" y="108" text-anchor="middle" fill="#64748b" font-family="system-ui,sans-serif" font-size="8">OpenAI</text>
  <rect x="328" y="118" width="84" height="20" rx="4" fill="#1e293b"/><text x="370" y="132" text-anchor="middle" fill="#64748b" font-family="monospace" font-size="8">SELECT &</text>
  <path d="M432 96h40" stroke="url(#am-accent)" stroke-width="2"/>
  <rect x="472" y="52" width="120" height="88" rx="8" fill="#111827" stroke="#334155"/>
  <text x="532" y="78" text-anchor="middle" fill="#94a3b8" font-family="system-ui,sans-serif" font-size="10">Redshift</text>
  <ellipse cx="532" cy="108" rx="36" ry="20" fill="#1e293b" stroke="#334155"/><text x="532" y="112" text-anchor="middle" fill="#64748b" font-family="system-ui,sans-serif" font-size="8">Data lake</text>
  <rect x="48" y="168" width="544" height="72" rx="8" fill="#0f172a" stroke="#1e293b"/>
  <text x="68" y="194" fill="#64748b" font-family="system-ui,sans-serif" font-size="10">Automated insights</text>
  <rect x="68" y="206" width="480" height="8" rx="4" fill="#1e293b"/>
  <rect x="68" y="206" width="360" height="8" rx="4" fill="url(#am-accent)" opacity="0.8"/>
  <text x="560" y="214" text-anchor="end" fill="#5eead4" font-family="system-ui,sans-serif" font-size="9">Insights ready</text>
  <rect x="48" y="264" width="168" height="52" rx="6" fill="#111827" stroke="#334155"/><text x="132" y="286" text-anchor="middle" fill="#94a3b8" font-family="system-ui,sans-serif" font-size="9">Python</text><text x="132" y="302" text-anchor="middle" fill="#64748b" font-family="system-ui,sans-serif" font-size="8">FastAPI</text>
  <rect x="236" y="264" width="168" height="52" rx="6" fill="#111827" stroke="#334155"/><text x="320" y="286" text-anchor="middle" fill="#94a3b8" font-family="system-ui,sans-serif" font-size="9">Superset</text><text x="320" y="302" text-anchor="middle" fill="#64748b" font-family="system-ui,sans-serif" font-size="8">Dashboards</text>
  <rect x="424" y="264" width="168" height="52" rx="6" fill="#111827" stroke="url(#am-accent)" stroke-width="1"/><text x="508" y="286" text-anchor="middle" fill="#5eead4" font-family="system-ui,sans-serif" font-size="9">SQL Intelligence</text><text x="508" y="302" text-anchor="middle" fill="#64748b" font-family="system-ui,sans-serif" font-size="8">NL analytics</text>
</svg>
