<svg xmlns="http://www.w3.org/2000/svg" viewBox="0 0 640 360" fill="none" role="img" aria-label="TradePilot trading intelligence diagram">
  <defs>
    <linearGradient id="tp-bg" x1="0" y1="0" x2="640" y2="360" gradientUnits="userSpaceOnUse">
      <stop stop-color="#0f172a"/><stop offset="1" stop-color="#1e293b"/>
    </linearGradient>
    <linearGradient id="tp-accent" x1="0" y1="0" x2="1" y2="1">
      <stop stop-color="#0ea5e9"/><stop offset="1" stop-color="#6366f1"/>
    </linearGradient>
  </defs>
  <rect width="640" height="360" fill="url(#tp-bg)"/>
  <rect x="48" y="52" width="120" height="56" rx="8" fill="#1e293b" stroke="#334155"/>
  <text x="108" y="76" text-anchor="middle" fill="#94a3b8" font-family="system-ui,sans-serif" font-size="11" font-weight="600">Market Data</text>
  <text x="108" y="92" text-anchor="middle" fill="#64748b" font-family="system-ui,sans-serif" font-size="9">Quant feeds</text>
  <rect x="260" y="40" width="120" height="72" rx="8" fill="#1e293b" stroke="url(#tp-accent)" stroke-width="1.5"/>
  <text x="320" y="68" text-anchor="middle" fill="#e2e8f0" font-family="system-ui,sans-serif" font-size="11" font-weight="600">Agent Swarm</text>
  <text x="320" y="84" text-anchor="middle" fill="#94a3b8" font-family="system-ui,sans-serif" font-size="9">Multi-agent</text>
  <text x="320" y="98" text-anchor="middle" fill="#64748b" font-family="system-ui,sans-serif" font-size="9">Intelligence</text>
  <rect x="472" y="52" width="120" height="56" rx="8" fill="#1e293b" stroke="#334155"/>
  <text x="532" y="76" text-anchor="middle" fill="#94a3b8" font-family="system-ui,sans-serif" font-size="11" font-weight="600">Strategy</text>
  <text x="532" y="92" text-anchor="middle" fill="#64748b" font-family="system-ui,sans-serif" font-size="9">Automated</text>
  <path d="M168 80h92M380 80h92" stroke="#0ea5e9" stroke-width="1.5" stroke-dasharray="4 3" opacity="0.7"/>
  <rect x="48" y="148" width="544" height="100" rx="10" fill="#0f172a" stroke="#334155"/>
  <polyline points="80,220 140,190 200,210 260,175 320,200 380,170 440,195 500,180 560,205" stroke="url(#tp-accent)" stroke-width="2.5" fill="none" stroke-linecap="round"/>
  <circle cx="320" cy="200" r="4" fill="#0ea5e9"/>
  <rect x="48" y="272" width="160" height="48" rx="6" fill="#1e293b" stroke="#334155"/><text x="128" y="294" text-anchor="middle" fill="#94a3b8" font-family="system-ui,sans-serif" font-size="10">PostgreSQL</text><text x="128" y="308" text-anchor="middle" fill="#64748b" font-family="system-ui,sans-serif" font-size="9">FastAPI</text>
  <rect x="240" y="272" width="160" height="48" rx="6" fill="#1e293b" stroke="#334155"/><text x="320" y="294" text-anchor="middle" fill="#94a3b8" font-family="system-ui,sans-serif" font-size="10">Quant Analysis</text><text x="320" y="308" text-anchor="middle" fill="#64748b" font-family="system-ui,sans-serif" font-size="9">Python agents</text>
  <rect x="432" y="272" width="160" height="48" rx="6" fill="#1e293b" stroke="url(#tp-accent)" stroke-width="1"/><text x="512" y="294" text-anchor="middle" fill="#7dd3fc" font-family="system-ui,sans-serif" font-size="10">TradePilot</text><text x="512" y="308" text-anchor="middle" fill="#64748b" font-family="system-ui,sans-serif" font-size="9">Workflows</text>
</svg>
