<svg xmlns="http://www.w3.org/2000/svg" viewBox="0 0 640 360" fill="none" role="img" aria-label="JARVIS OS personal AI diagram">
  <defs>
    <linearGradient id="jo-bg" x1="0" y1="0" x2="640" y2="360" gradientUnits="userSpaceOnUse">
      <stop stop-color="#0c1222"/><stop offset="1" stop-color="#1a1f35"/>
    </linearGradient>
    <linearGradient id="jo-ring" x1="0" y1="0" x2="1" y2="1">
      <stop stop-color="#818cf8"/><stop offset="1" stop-color="#22d3ee"/>
    </linearGradient>
    <radialGradient id="jo-glow" cx="0.5" cy="0.5" r="0.5">
      <stop stop-color="#6366f1" stop-opacity="0.35"/><stop offset="1" stop-color="#6366f1" stop-opacity="0"/>
    </radialGradient>
  </defs>
  <rect width="640" height="360" fill="url(#jo-bg)"/>
  <circle cx="320" cy="158" r="90" fill="url(#jo-glow)"/>
  <circle cx="320" cy="158" r="64" stroke="url(#jo-ring)" stroke-width="2" fill="#151929"/>
  <circle cx="320" cy="158" r="44" stroke="#334155" stroke-width="1" fill="#0f1424"/>
  <text x="320" y="152" text-anchor="middle" fill="#e2e8f0" font-family="system-ui,sans-serif" font-size="13" font-weight="700">JARVIS</text>
  <text x="320" y="170" text-anchor="middle" fill="#94a3b8" font-family="system-ui,sans-serif" font-size="9">Orchestrator</text>
  <line x1="256" y1="158" x2="120" y2="158" stroke="#475569"/>
  <rect x="40" y="138" width="120" height="40" rx="6" fill="#1e293b" stroke="#334155"/><text x="100" y="154" text-anchor="middle" fill="#94a3b8" font-family="system-ui,sans-serif" font-size="10">Memory</text><text x="100" y="168" text-anchor="middle" fill="#64748b" font-family="system-ui,sans-serif" font-size="8">Long-term</text>
  <line x1="384" y1="158" x2="520" y2="158" stroke="#475569"/>
  <rect x="480" y="138" width="120" height="40" rx="6" fill="#1e293b" stroke="#334155"/><text x="540" y="154" text-anchor="middle" fill="#94a3b8" font-family="system-ui,sans-serif" font-size="10">Agents</text><text x="540" y="168" text-anchor="middle" fill="#64748b" font-family="system-ui,sans-serif" font-size="8">Automation</text>
  <line x1="276" y1="208" x2="176" y2="252" stroke="#475569"/>
  <rect x="96" y="244" width="140" height="44" rx="6" fill="#1e293b" stroke="#0891b2"/><text x="166" y="262" text-anchor="middle" fill="#67e8f9" font-family="system-ui,sans-serif" font-size="10">Chroma</text><text x="166" y="278" text-anchor="middle" fill="#64748b" font-family="system-ui,sans-serif" font-size="8">Vector · RAG</text>
  <line x1="364" y1="208" x2="464" y2="252" stroke="#475569"/>
  <rect x="404" y="244" width="140" height="44" rx="6" fill="#1e293b" stroke="#334155"/><text x="474" y="262" text-anchor="middle" fill="#94a3b8" font-family="system-ui,sans-serif" font-size="10">LangGraph</text><text x="474" y="278" text-anchor="middle" fill="#64748b" font-family="system-ui,sans-serif" font-size="8">Multi-agent</text>
  <rect x="240" y="304" width="160" height="36" rx="6" fill="#1e293b" stroke="#334155"/><text x="320" y="326" text-anchor="middle" fill="#94a3b8" font-family="system-ui,sans-serif" font-size="10">FastAPI · OpenAI · Personal AI OS</text>
</svg>
